<?xml version="1.0" encoding="UTF-8" standalone="no"?><!DOCTYPE svg PUBLIC "-//W3C//DTD SVG 1.1//EN" "http://www.w3.org/Graphics/SVG/1.1/DTD/svg11.dtd"><svg width="100%" height="100%" viewBox="0 0 32 32" version="1.1" xmlns="http://www.w3.org/2000/svg" xmlns:xlink="http://www.w3.org/1999/xlink" xml:space="preserve" xmlns:serif="http://www.serif.com/" style="fill-rule:evenodd;clip-rule:evenodd;stroke-linejoin:round;stroke-miterlimit:2;"><path d="M27.126,4.574c-2.393,-2.393 -4.949,-0.844 -6.548,0.755l-15.11,15.111c-1.6,1.599 -3.274,4.03 -0.756,6.547c2.518,2.519 4.949,0.845 6.548,-0.755l15.11,-15.11c1.6,-1.6 3.148,-4.156 0.756,-6.548Z" style="fill:#fff;fill-rule:nonzero;"/><path d="M12.69,3.955l3.199,3.199l3.257,-3.256c0.221,-0.222 0.446,-0.428 0.672,-0.622c-0.341,-1.72 -1.323,-3.276 -3.93,-3.276c-2.612,0 -3.593,1.562 -3.932,3.286c0.244,0.211 0.487,0.423 0.734,0.669Z" style="fill:#fff;fill-rule:nonzero;"/><path d="M19.144,27.721l-3.255,-3.255l-3.197,3.198c-0.243,0.243 -0.485,0.465 -0.726,0.673c0.367,1.754 1.405,3.361 3.922,3.361c2.524,0 3.56,-1.615 3.925,-3.375c-0.224,-0.193 -0.448,-0.381 -0.669,-0.602Z" style="fill:#fff;fill-rule:nonzero;"/><path d="M11.333,11.711l-6.169,0c-2.261,0 -5.164,0.713 -5.164,4.096c0,2.525 1.616,3.561 3.376,3.925c0.208,-0.24 7.957,-8.021 7.957,-8.021Z" style="fill:#fff;fill-rule:nonzero;"/><path d="M28.413,11.875c-0.195,0.227 -7.96,8.028 -7.96,8.028l6.081,-0c2.262,-0 5.164,-0.535 5.164,-4.096c0,-2.611 -1.561,-3.593 -3.285,-3.932Z" style="fill:#fff;fill-rule:nonzero;"/><path d="M13.354,9.686l1.102,-1.102l-3.198,-3.198c-1.6,-1.599 -4.029,-3.273 -6.548,-0.755c-1.846,1.846 -1.436,3.644 -0.457,5.103c0.299,-0.022 9.101,-0.048 9.101,-0.048Z" style="fill:#fff;fill-rule:nonzero;"/><path d="M18.424,21.928l-1.105,1.104l3.257,3.257c1.6,1.6 4.156,3.148 6.548,0.756c1.785,-1.785 1.375,-3.661 0.389,-5.163c-0.318,0.023 -9.089,0.046 -9.089,0.046Z" style="fill:#fff;fill-rule:nonzero;"/></svg>